# 3ds Max Wavefront OBJ Exporter v0.97b - (c)2007 guruware
# File Created: 02.11.2017 00:01:37

mtllib flag1.mtl

#
# object flag1
#

v  87.5235 2.8295 -2.0045
v  87.5235 2.8295 -2.1391
v  87.5235 6.7100 -2.1391
v  87.5235 6.7100 -2.0045
v  86.7627 2.2994 -2.1391
v  86.7627 6.7100 -2.1391
v  86.7627 2.2994 -2.0045
v  86.7627 6.7100 -2.0045
v  86.0018 2.8295 -2.0045
v  86.0018 6.7100 -2.0045
v  86.0018 6.7100 -2.1391
v  86.0018 2.8295 -2.1391
v  85.9328 6.6393 -1.9899
v  85.9328 6.6393 -2.1536
v  87.5926 6.6393 -2.1536
v  87.5926 6.6393 -1.9899
v  85.9328 6.8174 -1.9899
v  87.5926 6.8174 -1.9899
v  87.5926 6.8174 -2.1536
v  85.9328 6.8174 -2.1536
v  87.4196 6.9106 -1.9916
v  87.4920 6.9334 -2.0007
v  87.4562 6.9164 -2.1304
v  87.3733 6.8649 -2.1377
v  87.4881 6.6788 -2.1280
v  87.5433 6.6916 -2.0055
v  87.5848 6.7532 -2.0104
v  87.5490 6.7532 -2.1207
v  86.1057 6.9106 -1.9916
v  86.1520 6.8649 -2.1377
v  86.0691 6.9164 -2.1304
v  86.0333 6.9334 -2.0007
v  85.9820 6.6916 -2.0055
v  86.0372 6.6788 -2.1280
v  85.9763 6.7532 -2.1207
v  85.9406 6.7532 -2.0104
v  86.8700 7.8903 -2.0195
v  86.9095 7.9400 -2.0195
v  86.8754 7.9400 -2.1189
v  86.8234 7.8903 -2.1189
v  87.4878 6.6982 -2.1189
v  87.5397 6.7479 -2.1189
v  87.5344 6.6982 -2.0195
v  87.5739 6.7479 -2.0195
v  86.6554 7.8903 -2.0195
v  86.7020 7.8903 -2.1189
v  86.6500 7.9400 -2.1189
v  86.6159 7.9400 -2.0195
v  86.0376 6.6982 -2.1189
v  85.9856 6.7479 -2.1189
v  85.9910 6.6982 -2.0195
v  85.9515 6.7479 -2.0195
v  86.5315 7.8145 -1.9899
v  86.4786 7.8145 -2.1536
v  87.0467 7.8145 -2.1536
v  86.9938 7.8145 -1.9899
v  86.4649 8.0071 -1.9899
v  87.0605 8.0071 -1.9899
v  87.0771 8.0071 -2.1536
v  86.4483 8.0071 -2.1536
# 60 vertices

vn 1.0000 0.0000 -0.0000
vn 0.0000 0.0000 -1.0000
vn 0.5716 -0.8205 -0.0000
vn 0.0000 1.0000 -0.0000
vn 0.0000 0.0000 1.0000
vn -1.0000 0.0000 -0.0000
vn -0.5716 -0.8205 -0.0000
vn 0.0000 -1.0000 -0.0000
vn -0.4311 0.8991 -0.0762
vn -0.7881 -0.4681 0.3998
vn 0.8437 0.4558 -0.2837
vn 0.1175 0.0053 0.9931
vn 0.7717 -0.5759 -0.2697
vn 0.0985 0.0034 -0.9951
vn 0.4311 0.8991 -0.0762
vn 0.7881 -0.4681 0.3998
vn -0.8437 0.4558 -0.2837
vn -0.1175 0.0053 0.9931
vn -0.7717 -0.5759 -0.2697
vn -0.0985 0.0034 -0.9951
vn -0.7052 0.6487 0.2863
vn -0.8083 -0.4505 0.3790
vn 0.8367 0.4663 -0.2872
vn 0.7052 -0.6487 -0.2863
vn 0.7052 0.6487 0.2863
vn 0.8083 -0.4505 0.3790
vn -0.8367 0.4663 -0.2872
vn -0.7052 -0.6487 -0.2863
vn 0.9498 -0.2392 0.2016
vn -0.9498 -0.2392 0.2016
# 30 vertex normals

vt 0.7177 0.1898 0.0000
vt 0.8705 0.1898 0.0000
vt 0.8705 0.3426 0.0000
vt 0.7177 0.3426 0.0000
vt 0.1776 0.0193 0.0000
vt 0.1994 0.9514 0.0000
vt 0.0386 0.9552 0.0000
vt 0.0194 0.1351 0.0000
vt 0.8504 0.5986 0.0000
vt 0.8504 0.4930 0.0000
vt 0.9032 0.4930 0.0000
vt 0.9032 0.5986 0.0000
vt 0.9687 0.4930 0.0000
vt 0.9687 0.5886 0.0000
vt 0.9209 0.5886 0.0000
vt 0.9209 0.4930 0.0000
vt 0.6996 0.1313 0.0000
vt 0.7000 0.9516 0.0000
vt 0.5391 0.9517 0.0000
vt 0.5387 0.0193 0.0000
vt 0.7177 0.0193 0.0000
vt 0.7177 0.1721 0.0000
vt 0.8705 0.1721 0.0000
vt 0.8705 0.0193 0.0000
vt 0.3410 0.1276 0.0000
vt 0.3602 0.9477 0.0000
vt 0.7177 0.8592 0.0000
vt 0.7705 0.8592 0.0000
vt 0.7705 0.7535 0.0000
vt 0.7177 0.7535 0.0000
vt 0.7655 0.8769 0.0000
vt 0.7177 0.8769 0.0000
vt 0.7177 0.9726 0.0000
vt 0.7655 0.9726 0.0000
vt 0.3779 0.1314 0.0000
vt 0.3783 0.9518 0.0000
vt 0.9606 0.3603 0.0000
vt 0.9606 0.4705 0.0000
vt 0.8504 0.4705 0.0000
vt 0.8504 0.3603 0.0000
vt 0.7177 0.6256 0.0000
vt 0.8279 0.6256 0.0000
vt 0.8279 0.7358 0.0000
vt 0.7177 0.7358 0.0000
vt 0.7177 0.4930 0.0000
vt 0.8326 0.4930 0.0000
vt 0.8326 0.6079 0.0000
vt 0.7177 0.6079 0.0000
vt 0.7882 0.9234 0.0000
vt 0.8243 0.9234 0.0000
vt 0.8243 0.9595 0.0000
vt 0.7882 0.9595 0.0000
vt 0.7177 0.3603 0.0000
vt 0.8326 0.3603 0.0000
vt 0.8326 0.4752 0.0000
vt 0.7177 0.4752 0.0000
vt 0.9351 0.6256 0.0000
vt 0.9712 0.6256 0.0000
vt 0.9712 0.6617 0.0000
vt 0.9351 0.6617 0.0000
vt 0.8914 0.8387 0.0000
vt 0.8833 0.9637 0.0000
vt 0.8914 0.9637 0.0000
vt 0.9018 0.9637 0.0000
vt 0.9018 0.8387 0.0000
vt 0.8833 0.8387 0.0000
vt 0.8729 0.8387 0.0000
vt 0.8729 0.9637 0.0000
vt 0.9381 0.8387 0.0000
vt 0.9300 0.9637 0.0000
vt 0.9381 0.9637 0.0000
vt 0.9485 0.8387 0.0000
vt 0.9485 0.9637 0.0000
vt 0.9300 0.8387 0.0000
vt 0.9196 0.9637 0.0000
vt 0.9196 0.8387 0.0000
vt 0.9525 0.7535 0.0000
vt 0.9525 0.7713 0.0000
vt 0.9703 0.7713 0.0000
vt 0.9703 0.7535 0.0000
vt 0.9451 0.1898 0.0000
vt 0.8882 0.1898 0.0000
vt 0.8882 0.2822 0.0000
vt 0.9451 0.2822 0.0000
vt 0.9806 0.1898 0.0000
vt 0.9237 0.1898 0.0000
vt 0.9237 0.2822 0.0000
vt 0.9806 0.2822 0.0000
vt 0.8456 0.7151 0.0000
vt 0.8633 0.7151 0.0000
vt 0.8633 0.7328 0.0000
vt 0.8456 0.7328 0.0000
vt 0.9451 0.0193 0.0000
vt 0.9451 0.1116 0.0000
vt 0.8882 0.1116 0.0000
vt 0.8882 0.0193 0.0000
vt 0.9806 0.0193 0.0000
vt 0.9806 0.1116 0.0000
vt 0.9237 0.1116 0.0000
vt 0.9237 0.0193 0.0000
vt 0.9348 0.7535 0.0000
vt 0.9348 0.8149 0.0000
vt 0.8734 0.8149 0.0000
vt 0.8734 0.7535 0.0000
vt 0.7882 0.8387 0.0000
vt 0.8552 0.8387 0.0000
vt 0.8552 0.9057 0.0000
vt 0.7882 0.9057 0.0000
vt 0.7882 0.7535 0.0000
vt 0.8557 0.7535 0.0000
vt 0.8557 0.8210 0.0000
vt 0.7882 0.8210 0.0000
vt 0.8882 0.1294 0.0000
vt 0.9269 0.1294 0.0000
vt 0.9269 0.1681 0.0000
vt 0.8882 0.1681 0.0000
vt 0.8456 0.6256 0.0000
vt 0.9174 0.6256 0.0000
vt 0.9174 0.6974 0.0000
vt 0.8456 0.6974 0.0000
vt 0.8882 0.2999 0.0000
vt 0.9269 0.2999 0.0000
vt 0.9269 0.3385 0.0000
vt 0.8882 0.3385 0.0000
# 124 texture coords

g flag1
usemtl Material__226
s off
f 1/1/1 2/2/1 3/3/1 4/4/1 
f 5/5/2 6/6/2 3/7/2 2/8/2 
f 2/9/3 1/10/3 7/11/3 5/12/3 
f 4/13/4 3/14/4 6/15/4 8/16/4 
f 1/17/5 4/18/5 8/19/5 7/20/5 
f 9/21/6 10/22/6 11/23/6 12/24/6 
f 5/5/2 12/25/2 11/26/2 6/6/2 
f 12/27/7 5/28/7 7/29/7 9/30/7 
f 10/31/4 8/32/4 6/33/4 11/34/4 
f 9/35/5 7/20/5 8/19/5 10/36/5 
f 13/37/8 14/38/8 15/39/8 16/40/8 
f 17/41/4 18/42/4 19/43/4 20/44/4 
f 13/45/5 16/46/5 18/47/5 17/48/5 
f 16/49/1 15/50/1 19/51/1 18/52/1 
f 15/53/2 14/54/2 20/55/2 19/56/2 
f 14/57/6 13/58/6 17/59/6 20/60/6 
f 21/61/9 22/62/9 23/62/9 24/61/9 
f 24/63/10 25/64/10 26/65/10 21/61/10 
f 22/66/11 27/67/11 28/68/11 23/62/11 
f 21/66/12 26/67/12 27/68/12 22/62/12 
f 25/64/13 28/64/13 27/67/13 26/67/13 
f 24/61/14 23/63/14 28/64/14 25/65/14 
f 29/69/15 30/69/15 31/70/15 32/70/15 
f 30/71/16 29/69/16 33/72/16 34/73/16 
f 32/74/17 31/70/17 35/75/17 36/76/17 
f 29/74/18 32/70/18 36/75/18 33/76/18 
f 34/73/19 33/76/19 36/76/19 35/73/19 
f 30/69/20 34/72/20 35/73/20 31/71/20 
f 37/77/21 38/78/21 39/79/21 40/80/21 
f 41/81/2 40/82/2 39/83/2 42/84/2 
f 40/83/22 41/84/22 43/81/22 37/82/22 
f 38/85/23 44/86/23 42/87/23 39/88/23 
f 37/85/5 43/86/5 44/87/5 38/88/5 
f 41/84/24 42/84/24 44/86/24 43/86/24 
f 45/89/25 46/90/25 47/91/25 48/92/25 
f 49/93/2 50/94/2 47/95/2 46/96/2 
f 46/95/26 45/96/26 51/93/26 49/94/26 
f 48/97/27 47/98/27 50/99/27 52/100/27 
f 45/97/5 48/98/5 52/99/5 51/100/5 
f 49/94/28 51/100/28 52/100/28 50/94/28 
f 53/101/8 54/102/8 55/103/8 56/104/8 
f 57/105/4 58/106/4 59/107/4 60/108/4 
f 53/109/5 56/110/5 58/111/5 57/112/5 
f 56/113/29 55/114/29 59/115/29 58/116/29 
f 55/117/2 54/118/2 60/119/2 59/120/2 
f 54/121/30 53/122/30 57/123/30 60/124/30 
# 46 polygons

